<?xml version="1.0" encoding="utf-8"?><svg xmlns="http://www.w3.org/2000/svg" xmlns:xlink="http://www.w3.org/1999/xlink"><symbol fill="none" viewBox="0 0 5 9" id="arrow-navigation-left" xmlns="http://www.w3.org/2000/svg"><path d="M5 9 1 5l4-4" stroke="currentColor" stroke-width=".75"/></symbol><symbol fill="none" viewBox="0 0 5 9" id="arrow-navigation-right" xmlns="http://www.w3.org/2000/svg"><path d="m1 1 4 4-4 4" stroke="currentColor" stroke-width=".75"/></symbol><symbol fill="none" viewBox="0 0 12 11" id="arrow-right" xmlns="http://www.w3.org/2000/svg"><path d="M2.333 7h9.334M8.166 3.5l3.5 3.5-3.5 3.5" opacity=".5" stroke="#080808"/></symbol><symbol fill="none" viewBox="0 0 21 19" id="arrow-right-light" xmlns="http://www.w3.org/2000/svg"><path d="M4 12h16m-6-6 6 6-6 6" opacity=".5" stroke="currentColor"/></symbol><symbol fill="none" viewBox="0 0 16 16" id="calendar" xmlns="http://www.w3.org/2000/svg"><g opacity=".5" fill="#fff"><path d="M11.983 3.377c.622 0 1.126-.494 1.126-1.108V1.11c0-.614-.504-1.11-1.126-1.11-.623 0-1.126.494-1.126 1.11v1.16a1.116 1.116 0 0 0 1.126 1.107z"/><path d="M15.983 1.92h-2.267v.564c0 .931-.767 1.69-1.714 1.69a1.702 1.702 0 0 1-1.713-1.69V1.92H5.716v.564c0 .931-.77 1.69-1.715 1.69-.946 0-1.714-.758-1.714-1.69V1.92L0 1.892V16h14.858L16 15.997 15.983 1.92zm-1.126 12.956H1.144V5.863h13.714v9.013h-.001z"/><path d="M3.984 3.377c.622 0 1.127-.494 1.127-1.108V1.11C5.11.495 4.606 0 3.984 0S2.86.494 2.86 1.11v1.16c0 .613.503 1.107 1.125 1.107zM7.52 7.073H5.719V8.64h1.8V7.073zm2.914 0H8.63V8.64h1.803V7.073zm2.697 0h-1.8V8.64h1.8V7.073zM7.52 9.675H5.719v1.566h1.8V9.675zm2.914 0H8.63v1.566h1.803V9.675zm2.697 0h-1.8v1.566h1.8V9.675zM7.52 12.329H5.719v1.566h1.8v-1.566zM4.66 9.675h-1.8v1.566h1.8V9.675zm0 2.654h-1.8v1.566h1.8v-1.566zm5.774 0H8.63v1.566h1.803v-1.566zm2.697 0h-1.8v1.566h1.8v-1.566z"/></g></symbol><symbol fill="none" viewBox="0 0 16 16" id="cross" xmlns="http://www.w3.org/2000/svg"><path fill="#fff" d="M0 15.334 15.333 0 16 .667.667 16z"/><path fill="#fff" d="m.667 0 15.332 15.333-.666.667L0 .667z"/></symbol><symbol fill="none" viewBox="0 0 9 9" id="plus" xmlns="http://www.w3.org/2000/svg"><path fill="#3A3E4B" d="M0 4h9v1H0z"/><path fill="#3A3E4B" d="M4 0h1v9H4z"/></symbol><symbol fill="none" viewBox="0 0 12 16" id="point" xmlns="http://www.w3.org/2000/svg"><path d="M6.212.003C2.802-.107 0 2.495 0 5.72c0 3.66 3.687 6.315 5.753 10.134a.29.29 0 0 0 .503 0c1.87-3.436 5.064-5.74 5.656-9.051.613-3.426-2.054-6.683-5.7-6.8zm-.208 8.713c-1.737 0-3.145-1.342-3.145-2.996 0-1.655 1.408-2.996 3.145-2.996S9.15 4.065 9.15 5.72c0 1.654-1.408 2.996-3.145 2.996z" fill="#fff" opacity=".5"/></symbol><symbol fill="none" viewBox="0 0 16 16" id="ruler" xmlns="http://www.w3.org/2000/svg"><path d="m1.084 9.275 7.363-7.227 1.228 1.205-7.363 7.226-1.228-1.204zM0 11.546l1.806-.76L.774 9.772 0 11.546zm11.515-10.1a.84.84 0 0 0 0-1.205.901.901 0 0 0-1.227 0l-.614.602 1.227 1.205.614-.602zm-2.661.201.41-.402L10.49 2.45l-.41.401-1.227-1.204zm5.699 2.429H16V1.07L.79 16H16v-1.136h-1.447a.287.287 0 0 1-.289-.284c0-.156.13-.284.29-.284h1.445v-1.135h-.867a.287.287 0 0 1-.29-.284c0-.157.13-.284.29-.284h.867v-1.136h-1.446a.287.287 0 0 1-.289-.284c0-.156.13-.283.29-.283h1.445V9.754h-.867a.287.287 0 0 1-.29-.284c0-.157.13-.284.29-.284h.867V8.05h-1.446a.287.287 0 0 1-.289-.283c0-.157.13-.284.29-.284h1.445V6.347h-.867a.287.287 0 0 1-.29-.284c0-.157.13-.284.29-.284h.867V4.644h-1.446a.287.287 0 0 1-.289-.284c0-.157.13-.284.29-.284zm-.867 9.369c0 .157-.13.284-.29.284H7.074a.29.29 0 0 1-.267-.176.28.28 0 0 1 .063-.309l6.322-6.205a.293.293 0 0 1 .315-.062.284.284 0 0 1 .179.262v6.206z" opacity=".5" fill="#fff"/></symbol></svg>