<svg width="54" height="11" viewBox="0 0 54 11" fill="none" xmlns="http://www.w3.org/2000/svg">
<path d="M0.596 0.199999H1.632V9.104H7.12V10H0.596V0.199999ZM17.1327 10.084C16.1621 10.084 15.2801 9.86933 14.4867 9.44C13.7027 9.00133 13.0867 8.404 12.6387 7.648C12.2001 6.892 11.9807 6.04267 11.9807 5.1C11.9807 4.15733 12.2001 3.308 12.6387 2.552C13.0867 1.796 13.7027 1.20333 14.4867 0.773999C15.2801 0.335333 16.1621 0.116 17.1327 0.116C18.1034 0.116 18.9761 0.330666 19.7507 0.76C20.5347 1.18933 21.1507 1.78667 21.5987 2.552C22.0467 3.308 22.2707 4.15733 22.2707 5.1C22.2707 6.04267 22.0467 6.89667 21.5987 7.662C21.1507 8.418 20.5347 9.01067 19.7507 9.44C18.9761 9.86933 18.1034 10.084 17.1327 10.084ZM17.1327 9.16C17.9074 9.16 18.6074 8.98733 19.2327 8.642C19.8581 8.28733 20.3481 7.802 20.7027 7.186C21.0574 6.56067 21.2347 5.86533 21.2347 5.1C21.2347 4.33467 21.0574 3.644 20.7027 3.028C20.3481 2.40267 19.8581 1.91733 19.2327 1.572C18.6074 1.21733 17.9074 1.04 17.1327 1.04C16.3581 1.04 15.6534 1.21733 15.0187 1.572C14.3934 1.91733 13.8987 2.40267 13.5347 3.028C13.1801 3.644 13.0027 4.33467 13.0027 5.1C13.0027 5.86533 13.1801 6.56067 13.5347 7.186C13.8987 7.802 14.3934 8.28733 15.0187 8.642C15.6534 8.98733 16.3581 9.16 17.1327 9.16ZM35.6949 5.1H36.6889V8.838C36.2315 9.23933 35.6902 9.54733 35.0649 9.762C34.4395 9.97667 33.7815 10.084 33.0909 10.084C32.1109 10.084 31.2289 9.86933 30.4449 9.44C29.6609 9.01067 29.0449 8.418 28.5969 7.662C28.1489 6.89667 27.9249 6.04267 27.9249 5.1C27.9249 4.15733 28.1489 3.308 28.5969 2.552C29.0449 1.78667 29.6609 1.18933 30.4449 0.76C31.2289 0.330666 32.1155 0.116 33.1049 0.116C33.8515 0.116 34.5375 0.237333 35.1629 0.48C35.7882 0.713333 36.3155 1.06333 36.7449 1.53L36.1009 2.188C35.3262 1.42267 34.3415 1.04 33.1469 1.04C32.3535 1.04 31.6349 1.21733 30.9909 1.572C30.3562 1.91733 29.8569 2.40267 29.4929 3.028C29.1289 3.644 28.9469 4.33467 28.9469 5.1C28.9469 5.86533 29.1289 6.556 29.4929 7.172C29.8569 7.788 30.3562 8.27333 30.9909 8.628C31.6255 8.98267 32.3395 9.16 33.1329 9.16C34.1409 9.16 34.9949 8.908 35.6949 8.404V5.1ZM48.105 10.084C47.1343 10.084 46.2523 9.86933 45.459 9.44C44.675 9.00133 44.059 8.404 43.611 7.648C43.1723 6.892 42.953 6.04267 42.953 5.1C42.953 4.15733 43.1723 3.308 43.611 2.552C44.059 1.796 44.675 1.20333 45.459 0.773999C46.2523 0.335333 47.1343 0.116 48.105 0.116C49.0757 0.116 49.9483 0.330666 50.723 0.76C51.507 1.18933 52.123 1.78667 52.571 2.552C53.019 3.308 53.243 4.15733 53.243 5.1C53.243 6.04267 53.019 6.89667 52.571 7.662C52.123 8.418 51.507 9.01067 50.723 9.44C49.9483 9.86933 49.0757 10.084 48.105 10.084ZM48.105 9.16C48.8797 9.16 49.5797 8.98733 50.205 8.642C50.8303 8.28733 51.3203 7.802 51.675 7.186C52.0297 6.56067 52.207 5.86533 52.207 5.1C52.207 4.33467 52.0297 3.644 51.675 3.028C51.3203 2.40267 50.8303 1.91733 50.205 1.572C49.5797 1.21733 48.8797 1.04 48.105 1.04C47.3303 1.04 46.6257 1.21733 45.991 1.572C45.3657 1.91733 44.871 2.40267 44.507 3.028C44.1523 3.644 43.975 4.33467 43.975 5.1C43.975 5.86533 44.1523 6.56067 44.507 7.186C44.871 7.802 45.3657 8.28733 45.991 8.642C46.6257 8.98733 47.3303 9.16 48.105 9.16Z" fill="white"/>
</svg>
